# Tiled2Unity generated file. Do not modify by hand.
# Wavefront file for 'corssroad_mesh_0002.obj'

# Vertices (Count = 48)
v -608 -640 0
v -624 -640 0
v -624 -624 0
v -608 -624 0
v -624 -640 0
v -640 -640 0
v -640 -624 0
v -624 -624 0
v -640 -640 0
v -656 -640 0
v -656 -624 0
v -640 -624 0
v -608 -656 0
v -624 -656 0
v -624 -640 0
v -608 -640 0
v -624 -656 0
v -640 -656 0
v -640 -640 0
v -624 -640 0
v -640 -656 0
v -656 -656 0
v -656 -640 0
v -640 -640 0
v -608 -672 0
v -624 -672 0
v -624 -656 0
v -608 -656 0
v -624 -672 0
v -640 -672 0
v -640 -656 0
v -624 -656 0
v -640 -672 0
v -656 -672 0
v -656 -656 0
v -640 -656 0
v -608 -688 0
v -624 -688 0
v -624 -672 0
v -608 -672 0
v -624 -688 0
v -640 -688 0
v -640 -672 0
v -624 -672 0
v -640 -688 0
v -656 -688 0
v -656 -672 0
v -640 -672 0

# Texture cooridinates (Count = 26)
vt 0.1666667 0.5428572
vt 0.1875 0.5428572
vt 0.1875 0.5714285
vt 0.1666667 0.5714285
vt 0.08333334 0.5428572
vt 0.1041667 0.5428572
vt 0.1041667 0.5714285
vt 0.08333334 0.5714285
vt 0.25 0.5428572
vt 0.2708333 0.5428572
vt 0.2708333 0.5714285
vt 0.25 0.5714285
vt 0.125 0.5428572
vt 0.1458333 0.5428572
vt 0.1458333 0.5714285
vt 0.125 0.5714285
vt 0.2083333 0.5428572
vt 0.2291667 0.5428572
vt 0.2291667 0.5714285
vt 0.2083333 0.5714285
vt 0.2916667 0.5428572
vt 0.3125 0.5428572
vt 0.3125 0.5714285
vt 0.2916667 0.5714285
vt 0.3333333 0.5428572
vt 0.3333333 0.5714285

# Normal
vn 0 0 -1

# Mesh description
g corssroad_mesh_0002

# Faces
f 1/1/1 2/2/1 3/3/1 4/4/1
f 5/5/1 6/6/1 7/7/1 8/8/1
f 9/9/1 10/10/1 11/11/1 12/12/1
f 13/13/1 14/14/1 15/15/1 16/16/1
f 17/17/1 18/18/1 19/19/1 20/20/1
f 21/18/1 22/9/1 23/12/1 24/19/1
f 25/13/1 26/14/1 27/15/1 28/16/1
f 29/17/1 30/18/1 31/19/1 32/20/1
f 33/18/1 34/9/1 35/12/1 36/19/1
f 37/21/1 38/22/1 39/23/1 40/24/1
f 41/10/1 42/21/1 43/24/1 44/11/1
f 45/22/1 46/25/1 47/26/1 48/23/1

