# Tiled2Unity generated file. Do not modify by hand.
# Wavefront file for 'doctor_mesh_0004.obj'

# Vertices (Count = 52)
v -96 -80 0
v -112 -80 0
v -112 -64 0
v -96 -64 0
v -112 -176 0
v -128 -176 0
v -128 -160 0
v -112 -160 0
v -128 -176 0
v -144 -176 0
v -144 -160 0
v -128 -160 0
v -144 -176 0
v -160 -176 0
v -160 -160 0
v -144 -160 0
v -112 -192 0
v -128 -192 0
v -128 -176 0
v -112 -176 0
v -128 -192 0
v -144 -192 0
v -144 -176 0
v -128 -176 0
v -144 -192 0
v -160 -192 0
v -160 -176 0
v -144 -176 0
v -112 -208 0
v -128 -208 0
v -128 -192 0
v -112 -192 0
v -128 -208 0
v -144 -208 0
v -144 -192 0
v -128 -192 0
v -144 -208 0
v -160 -208 0
v -160 -192 0
v -144 -192 0
v -112 -224 0
v -128 -224 0
v -128 -208 0
v -112 -208 0
v -128 -224 0
v -144 -224 0
v -144 -208 0
v -128 -208 0
v -144 -224 0
v -160 -224 0
v -160 -208 0
v -144 -208 0

# Texture cooridinates (Count = 20)
vt 0.5208333 0.08571428
vt 0.5416667 0.08571428
vt 0.5416667 0.1142857
vt 0.5208333 0.1142857
vt 0.2916667 0.2
vt 0.3125 0.2
vt 0.3125 0.2285714
vt 0.2916667 0.2285714
vt 0.3333333 0.2
vt 0.3333333 0.2285714
vt 0.3541667 0.2
vt 0.3541667 0.2285714
vt 0.2916667 0.1714286
vt 0.3125 0.1714286
vt 0.3333333 0.1714286
vt 0.3541667 0.1714286
vt 0.2916667 0.1428571
vt 0.3125 0.1428571
vt 0.3333333 0.1428571
vt 0.3541667 0.1428571

# Normal
vn 0 0 -1

# Mesh description
g doctor_mesh_0004

# Faces
f 1/1/1 2/2/1 3/3/1 4/4/1
f 5/5/1 6/6/1 7/7/1 8/8/1
f 9/6/1 10/9/1 11/10/1 12/7/1
f 13/9/1 14/11/1 15/12/1 16/10/1
f 17/13/1 18/14/1 19/6/1 20/5/1
f 21/14/1 22/15/1 23/9/1 24/6/1
f 25/15/1 26/16/1 27/11/1 28/9/1
f 29/13/1 30/14/1 31/6/1 32/5/1
f 33/14/1 34/15/1 35/9/1 36/6/1
f 37/15/1 38/16/1 39/11/1 40/9/1
f 41/17/1 42/18/1 43/14/1 44/13/1
f 45/18/1 46/19/1 47/15/1 48/14/1
f 49/19/1 50/20/1 51/16/1 52/15/1

