# Tiled2Unity generated file. Do not modify by hand.
# Wavefront file for 'doctor_mesh_0002.obj'

# Vertices (Count = 540)
v 0 -16 0
v -16 -16 0
v -16 0 0
v 0 0 0
v -16 -16 0
v -32 -16 0
v -32 0 0
v -16 0 0
v -32 -16 0
v -48 -16 0
v -48 0 0
v -32 0 0
v -48 -16 0
v -64 -16 0
v -64 0 0
v -48 0 0
v -64 -16 0
v -80 -16 0
v -80 0 0
v -64 0 0
v -80 -16 0
v -96 -16 0
v -96 0 0
v -80 0 0
v -96 -16 0
v -112 -16 0
v -112 0 0
v -96 0 0
v -112 -16 0
v -128 -16 0
v -128 0 0
v -112 0 0
v -128 -16 0
v -144 -16 0
v -144 0 0
v -128 0 0
v -144 -16 0
v -160 -16 0
v -160 0 0
v -144 0 0
v -160 -16 0
v -176 -16 0
v -176 0 0
v -160 0 0
v -176 -16 0
v -192 -16 0
v -192 0 0
v -176 0 0
v -192 -16 0
v -208 -16 0
v -208 0 0
v -192 0 0
v -208 -16 0
v -224 -16 0
v -224 0 0
v -208 0 0
v -224 -16 0
v -240 -16 0
v -240 0 0
v -224 0 0
v 0 -32 0
v -16 -32 0
v -16 -16 0
v 0 -16 0
v -16 -32 0
v -32 -32 0
v -32 -16 0
v -16 -16 0
v -32 -32 0
v -48 -32 0
v -48 -16 0
v -32 -16 0
v -48 -32 0
v -64 -32 0
v -64 -16 0
v -48 -16 0
v -64 -32 0
v -80 -32 0
v -80 -16 0
v -64 -16 0
v -80 -32 0
v -96 -32 0
v -96 -16 0
v -80 -16 0
v -96 -32 0
v -112 -32 0
v -112 -16 0
v -96 -16 0
v -112 -32 0
v -128 -32 0
v -128 -16 0
v -112 -16 0
v -128 -32 0
v -144 -32 0
v -144 -16 0
v -128 -16 0
v -144 -32 0
v -160 -32 0
v -160 -16 0
v -144 -16 0
v -160 -32 0
v -176 -32 0
v -176 -16 0
v -160 -16 0
v -176 -32 0
v -192 -32 0
v -192 -16 0
v -176 -16 0
v -192 -32 0
v -208 -32 0
v -208 -16 0
v -192 -16 0
v -208 -32 0
v -224 -32 0
v -224 -16 0
v -208 -16 0
v -224 -32 0
v -240 -32 0
v -240 -16 0
v -224 -16 0
v 0 -48 0
v -16 -48 0
v -16 -32 0
v 0 -32 0
v -16 -48 0
v -32 -48 0
v -32 -32 0
v -16 -32 0
v -32 -48 0
v -48 -48 0
v -48 -32 0
v -32 -32 0
v -48 -48 0
v -64 -48 0
v -64 -32 0
v -48 -32 0
v -64 -48 0
v -80 -48 0
v -80 -32 0
v -64 -32 0
v -80 -48 0
v -96 -48 0
v -96 -32 0
v -80 -32 0
v -96 -48 0
v -112 -48 0
v -112 -32 0
v -96 -32 0
v -112 -48 0
v -128 -48 0
v -128 -32 0
v -112 -32 0
v -128 -48 0
v -144 -48 0
v -144 -32 0
v -128 -32 0
v -144 -48 0
v -160 -48 0
v -160 -32 0
v -144 -32 0
v -160 -48 0
v -176 -48 0
v -176 -32 0
v -160 -32 0
v -176 -48 0
v -192 -48 0
v -192 -32 0
v -176 -32 0
v -192 -48 0
v -208 -48 0
v -208 -32 0
v -192 -32 0
v -208 -48 0
v -224 -48 0
v -224 -32 0
v -208 -32 0
v -224 -48 0
v -240 -48 0
v -240 -32 0
v -224 -32 0
v 0 -64 0
v -16 -64 0
v -16 -48 0
v 0 -48 0
v -16 -64 0
v -32 -64 0
v -32 -48 0
v -16 -48 0
v -32 -64 0
v -48 -64 0
v -48 -48 0
v -32 -48 0
v -48 -64 0
v -64 -64 0
v -64 -48 0
v -48 -48 0
v -64 -64 0
v -80 -64 0
v -80 -48 0
v -64 -48 0
v -80 -64 0
v -96 -64 0
v -96 -48 0
v -80 -48 0
v -96 -64 0
v -112 -64 0
v -112 -48 0
v -96 -48 0
v -112 -64 0
v -128 -64 0
v -128 -48 0
v -112 -48 0
v -128 -64 0
v -144 -64 0
v -144 -48 0
v -128 -48 0
v -144 -64 0
v -160 -64 0
v -160 -48 0
v -144 -48 0
v -160 -64 0
v -176 -64 0
v -176 -48 0
v -160 -48 0
v -176 -64 0
v -192 -64 0
v -192 -48 0
v -176 -48 0
v -192 -64 0
v -208 -64 0
v -208 -48 0
v -192 -48 0
v -208 -64 0
v -224 -64 0
v -224 -48 0
v -208 -48 0
v -224 -64 0
v -240 -64 0
v -240 -48 0
v -224 -48 0
v -48 -208 0
v -64 -208 0
v -64 -192 0
v -48 -192 0
v -64 -208 0
v -80 -208 0
v -80 -192 0
v -64 -192 0
v -80 -208 0
v -96 -208 0
v -96 -192 0
v -80 -192 0
v -96 -208 0
v -112 -208 0
v -112 -192 0
v -96 -192 0
v -160 -208 0
v -176 -208 0
v -176 -192 0
v -160 -192 0
v -176 -208 0
v -192 -208 0
v -192 -192 0
v -176 -192 0
v -192 -208 0
v -208 -208 0
v -208 -192 0
v -192 -192 0
v -208 -208 0
v -224 -208 0
v -224 -192 0
v -208 -192 0
v -224 -208 0
v -240 -208 0
v -240 -192 0
v -224 -192 0
v -240 -208 0
v -256 -208 0
v -256 -192 0
v -240 -192 0
v -256 -208 0
v -272 -208 0
v -272 -192 0
v -256 -192 0
v -272 -208 0
v -288 -208 0
v -288 -192 0
v -272 -192 0
v -288 -208 0
v -304 -208 0
v -304 -192 0
v -288 -192 0
v -304 -208 0
v -320 -208 0
v -320 -192 0
v -304 -192 0
v -320 -208 0
v -336 -208 0
v -336 -192 0
v -320 -192 0
v -48 -224 0
v -64 -224 0
v -64 -208 0
v -48 -208 0
v -64 -224 0
v -80 -224 0
v -80 -208 0
v -64 -208 0
v -80 -224 0
v -96 -224 0
v -96 -208 0
v -80 -208 0
v -96 -224 0
v -112 -224 0
v -112 -208 0
v -96 -208 0
v -160 -224 0
v -176 -224 0
v -176 -208 0
v -160 -208 0
v -176 -224 0
v -192 -224 0
v -192 -208 0
v -176 -208 0
v -192 -224 0
v -208 -224 0
v -208 -208 0
v -192 -208 0
v -208 -224 0
v -224 -224 0
v -224 -208 0
v -208 -208 0
v -224 -224 0
v -240 -224 0
v -240 -208 0
v -224 -208 0
v -240 -224 0
v -256 -224 0
v -256 -208 0
v -240 -208 0
v -256 -224 0
v -272 -224 0
v -272 -208 0
v -256 -208 0
v -272 -224 0
v -288 -224 0
v -288 -208 0
v -272 -208 0
v -288 -224 0
v -304 -224 0
v -304 -208 0
v -288 -208 0
v -304 -224 0
v -320 -224 0
v -320 -208 0
v -304 -208 0
v -320 -224 0
v -336 -224 0
v -336 -208 0
v -320 -208 0
v -48 -240 0
v -64 -240 0
v -64 -224 0
v -48 -224 0
v -64 -240 0
v -80 -240 0
v -80 -224 0
v -64 -224 0
v -80 -240 0
v -96 -240 0
v -96 -224 0
v -80 -224 0
v -96 -240 0
v -112 -240 0
v -112 -224 0
v -96 -224 0
v -160 -240 0
v -176 -240 0
v -176 -224 0
v -160 -224 0
v -176 -240 0
v -192 -240 0
v -192 -224 0
v -176 -224 0
v -192 -240 0
v -208 -240 0
v -208 -224 0
v -192 -224 0
v -208 -240 0
v -224 -240 0
v -224 -224 0
v -208 -224 0
v -224 -240 0
v -240 -240 0
v -240 -224 0
v -224 -224 0
v -240 -240 0
v -256 -240 0
v -256 -224 0
v -240 -224 0
v -256 -240 0
v -272 -240 0
v -272 -224 0
v -256 -224 0
v -272 -240 0
v -288 -240 0
v -288 -224 0
v -272 -224 0
v -288 -240 0
v -304 -240 0
v -304 -224 0
v -288 -224 0
v -304 -240 0
v -320 -240 0
v -320 -224 0
v -304 -224 0
v -320 -240 0
v -336 -240 0
v -336 -224 0
v -320 -224 0
v -48 -256 0
v -64 -256 0
v -64 -240 0
v -48 -240 0
v -64 -256 0
v -80 -256 0
v -80 -240 0
v -64 -240 0
v -80 -256 0
v -96 -256 0
v -96 -240 0
v -80 -240 0
v -96 -256 0
v -112 -256 0
v -112 -240 0
v -96 -240 0
v -160 -256 0
v -176 -256 0
v -176 -240 0
v -160 -240 0
v -176 -256 0
v -192 -256 0
v -192 -240 0
v -176 -240 0
v -192 -256 0
v -208 -256 0
v -208 -240 0
v -192 -240 0
v -208 -256 0
v -224 -256 0
v -224 -240 0
v -208 -240 0
v -224 -256 0
v -240 -256 0
v -240 -240 0
v -224 -240 0
v -240 -256 0
v -256 -256 0
v -256 -240 0
v -240 -240 0
v -256 -256 0
v -272 -256 0
v -272 -240 0
v -256 -240 0
v -272 -256 0
v -288 -256 0
v -288 -240 0
v -272 -240 0
v -288 -256 0
v -304 -256 0
v -304 -240 0
v -288 -240 0
v -304 -256 0
v -320 -256 0
v -320 -240 0
v -304 -240 0
v -320 -256 0
v -336 -256 0
v -336 -240 0
v -320 -240 0
v -48 -272 0
v -64 -272 0
v -64 -256 0
v -48 -256 0
v -64 -272 0
v -80 -272 0
v -80 -256 0
v -64 -256 0
v -80 -272 0
v -96 -272 0
v -96 -256 0
v -80 -256 0
v -96 -272 0
v -112 -272 0
v -112 -256 0
v -96 -256 0
v -160 -272 0
v -176 -272 0
v -176 -256 0
v -160 -256 0
v -176 -272 0
v -192 -272 0
v -192 -256 0
v -176 -256 0
v -192 -272 0
v -208 -272 0
v -208 -256 0
v -192 -256 0
v -208 -272 0
v -224 -272 0
v -224 -256 0
v -208 -256 0
v -224 -272 0
v -240 -272 0
v -240 -256 0
v -224 -256 0
v -240 -272 0
v -256 -272 0
v -256 -256 0
v -240 -256 0
v -256 -272 0
v -272 -272 0
v -272 -256 0
v -256 -256 0
v -272 -272 0
v -288 -272 0
v -288 -256 0
v -272 -256 0
v -288 -272 0
v -304 -272 0
v -304 -256 0
v -288 -256 0
v -304 -272 0
v -320 -272 0
v -320 -256 0
v -304 -256 0
v -320 -272 0
v -336 -272 0
v -336 -256 0
v -320 -256 0

# Texture cooridinates (Count = 41)
vt 0.8125 0.5428572
vt 0.8333333 0.5428572
vt 0.8333333 0.5714285
vt 0.8125 0.5714285
vt 0.8541667 0.5428572
vt 0.8541667 0.5714285
vt 0.875 0.5428572
vt 0.8958333 0.5428572
vt 0.8958333 0.5714285
vt 0.875 0.5714285
vt 0.8125 0.5142857
vt 0.8333333 0.5142857
vt 0.8541667 0.5142857
vt 0.875 0.5142857
vt 0.8958333 0.5142857
vt 0.8125 0.4857143
vt 0.8333333 0.4857143
vt 0.8541667 0.4857143
vt 0.875 0.4857143
vt 0.8958333 0.4857143
vt 0.8125 0.4571428
vt 0.8333333 0.4571428
vt 0.8541667 0.4571428
vt 0.875 0.4571428
vt 0.8958333 0.4571428
vt 0.9166667 0.5142857
vt 0.9375 0.5142857
vt 0.9375 0.5428572
vt 0.9166667 0.5428572
vt 0.9583333 0.5142857
vt 0.9583333 0.5428572
vt 0.9791667 0.5142857
vt 0.9791667 0.5428572
vt 0.9166667 0.4857143
vt 0.9375 0.4857143
vt 0.9583333 0.4857143
vt 0.9791667 0.4857143
vt 0.9166667 0.4571428
vt 0.9375 0.4571428
vt 0.9583333 0.4571428
vt 0.9791667 0.4571428

# Normal
vn 0 0 -1

# Mesh description
g doctor_mesh_0002

# Faces
f 1/1/1 2/2/1 3/3/1 4/4/1
f 5/2/1 6/5/1 7/6/1 8/3/1
f 9/2/1 10/5/1 11/6/1 12/3/1
f 13/2/1 14/5/1 15/6/1 16/3/1
f 17/2/1 18/5/1 19/6/1 20/3/1
f 21/2/1 22/5/1 23/6/1 24/3/1
f 25/2/1 26/5/1 27/6/1 28/3/1
f 29/2/1 30/5/1 31/6/1 32/3/1
f 33/2/1 34/5/1 35/6/1 36/3/1
f 37/2/1 38/5/1 39/6/1 40/3/1
f 41/2/1 42/5/1 43/6/1 44/3/1
f 45/2/1 46/5/1 47/6/1 48/3/1
f 49/2/1 50/5/1 51/6/1 52/3/1
f 53/2/1 54/5/1 55/6/1 56/3/1
f 57/7/1 58/8/1 59/9/1 60/10/1
f 61/11/1 62/12/1 63/2/1 64/1/1
f 65/12/1 66/13/1 67/5/1 68/2/1
f 69/12/1 70/13/1 71/5/1 72/2/1
f 73/12/1 74/13/1 75/5/1 76/2/1
f 77/12/1 78/13/1 79/5/1 80/2/1
f 81/12/1 82/13/1 83/5/1 84/2/1
f 85/12/1 86/13/1 87/5/1 88/2/1
f 89/12/1 90/13/1 91/5/1 92/2/1
f 93/12/1 94/13/1 95/5/1 96/2/1
f 97/12/1 98/13/1 99/5/1 100/2/1
f 101/12/1 102/13/1 103/5/1 104/2/1
f 105/12/1 106/13/1 107/5/1 108/2/1
f 109/12/1 110/13/1 111/5/1 112/2/1
f 113/12/1 114/13/1 115/5/1 116/2/1
f 117/14/1 118/15/1 119/8/1 120/7/1
f 121/16/1 122/17/1 123/12/1 124/11/1
f 125/17/1 126/18/1 127/13/1 128/12/1
f 129/17/1 130/18/1 131/13/1 132/12/1
f 133/17/1 134/18/1 135/13/1 136/12/1
f 137/17/1 138/18/1 139/13/1 140/12/1
f 141/17/1 142/18/1 143/13/1 144/12/1
f 145/17/1 146/18/1 147/13/1 148/12/1
f 149/17/1 150/18/1 151/13/1 152/12/1
f 153/17/1 154/18/1 155/13/1 156/12/1
f 157/17/1 158/18/1 159/13/1 160/12/1
f 161/17/1 162/18/1 163/13/1 164/12/1
f 165/17/1 166/18/1 167/13/1 168/12/1
f 169/17/1 170/18/1 171/13/1 172/12/1
f 173/17/1 174/18/1 175/13/1 176/12/1
f 177/19/1 178/20/1 179/15/1 180/14/1
f 181/21/1 182/22/1 183/17/1 184/16/1
f 185/22/1 186/23/1 187/18/1 188/17/1
f 189/22/1 190/23/1 191/18/1 192/17/1
f 193/22/1 194/23/1 195/18/1 196/17/1
f 197/22/1 198/23/1 199/18/1 200/17/1
f 201/22/1 202/23/1 203/18/1 204/17/1
f 205/22/1 206/23/1 207/18/1 208/17/1
f 209/22/1 210/23/1 211/18/1 212/17/1
f 213/22/1 214/23/1 215/18/1 216/17/1
f 217/22/1 218/23/1 219/18/1 220/17/1
f 221/22/1 222/23/1 223/18/1 224/17/1
f 225/22/1 226/23/1 227/18/1 228/17/1
f 229/22/1 230/23/1 231/18/1 232/17/1
f 233/22/1 234/23/1 235/18/1 236/17/1
f 237/24/1 238/25/1 239/20/1 240/19/1
f 241/1/1 242/2/1 243/3/1 244/4/1
f 245/2/1 246/5/1 247/6/1 248/3/1
f 249/2/1 250/5/1 251/6/1 252/3/1
f 253/2/1 254/5/1 255/6/1 256/3/1
f 257/2/1 258/5/1 259/6/1 260/3/1
f 261/2/1 262/5/1 263/6/1 264/3/1
f 265/2/1 266/5/1 267/6/1 268/3/1
f 269/2/1 270/5/1 271/6/1 272/3/1
f 273/2/1 274/5/1 275/6/1 276/3/1
f 277/2/1 278/5/1 279/6/1 280/3/1
f 281/2/1 282/5/1 283/6/1 284/3/1
f 285/2/1 286/5/1 287/6/1 288/3/1
f 289/2/1 290/5/1 291/6/1 292/3/1
f 293/2/1 294/5/1 295/6/1 296/3/1
f 297/7/1 298/8/1 299/9/1 300/10/1
f 301/11/1 302/12/1 303/2/1 304/1/1
f 305/12/1 306/13/1 307/5/1 308/2/1
f 309/12/1 310/13/1 311/5/1 312/2/1
f 313/12/1 314/13/1 315/5/1 316/2/1
f 317/12/1 318/13/1 319/5/1 320/2/1
f 321/12/1 322/13/1 323/5/1 324/2/1
f 325/12/1 326/13/1 327/5/1 328/2/1
f 329/12/1 330/13/1 331/5/1 332/2/1
f 333/12/1 334/13/1 335/5/1 336/2/1
f 337/12/1 338/13/1 339/5/1 340/2/1
f 341/12/1 342/13/1 343/5/1 344/2/1
f 345/12/1 346/13/1 347/5/1 348/2/1
f 349/12/1 350/13/1 351/5/1 352/2/1
f 353/12/1 354/13/1 355/5/1 356/2/1
f 357/14/1 358/15/1 359/8/1 360/7/1
f 361/11/1 362/12/1 363/2/1 364/1/1
f 365/12/1 366/13/1 367/5/1 368/2/1
f 369/12/1 370/13/1 371/5/1 372/2/1
f 373/12/1 374/13/1 375/5/1 376/2/1
f 377/12/1 378/13/1 379/5/1 380/2/1
f 381/12/1 382/13/1 383/5/1 384/2/1
f 385/12/1 386/13/1 387/5/1 388/2/1
f 389/12/1 390/13/1 391/5/1 392/2/1
f 393/12/1 394/13/1 395/5/1 396/2/1
f 397/12/1 398/13/1 399/5/1 400/2/1
f 401/12/1 402/13/1 403/5/1 404/2/1
f 405/26/1 406/27/1 407/28/1 408/29/1
f 409/27/1 410/30/1 411/31/1 412/28/1
f 413/30/1 414/32/1 415/33/1 416/31/1
f 417/14/1 418/15/1 419/8/1 420/7/1
f 421/16/1 422/17/1 423/12/1 424/11/1
f 425/17/1 426/18/1 427/13/1 428/12/1
f 429/17/1 430/18/1 431/13/1 432/12/1
f 433/17/1 434/18/1 435/13/1 436/12/1
f 437/17/1 438/18/1 439/13/1 440/12/1
f 441/17/1 442/18/1 443/13/1 444/12/1
f 445/17/1 446/18/1 447/13/1 448/12/1
f 449/17/1 450/18/1 451/13/1 452/12/1
f 453/17/1 454/18/1 455/13/1 456/12/1
f 457/17/1 458/18/1 459/13/1 460/12/1
f 461/17/1 462/18/1 463/13/1 464/12/1
f 465/34/1 466/35/1 467/27/1 468/26/1
f 469/35/1 470/36/1 471/30/1 472/27/1
f 473/36/1 474/37/1 475/32/1 476/30/1
f 477/19/1 478/20/1 479/15/1 480/14/1
f 481/21/1 482/22/1 483/17/1 484/16/1
f 485/22/1 486/23/1 487/18/1 488/17/1
f 489/22/1 490/23/1 491/18/1 492/17/1
f 493/22/1 494/23/1 495/18/1 496/17/1
f 497/22/1 498/23/1 499/18/1 500/17/1
f 501/22/1 502/23/1 503/18/1 504/17/1
f 505/22/1 506/23/1 507/18/1 508/17/1
f 509/22/1 510/23/1 511/18/1 512/17/1
f 513/22/1 514/23/1 515/18/1 516/17/1
f 517/22/1 518/23/1 519/18/1 520/17/1
f 521/22/1 522/23/1 523/18/1 524/17/1
f 525/38/1 526/39/1 527/35/1 528/34/1
f 529/39/1 530/40/1 531/36/1 532/35/1
f 533/40/1 534/41/1 535/37/1 536/36/1
f 537/24/1 538/25/1 539/20/1 540/19/1

